<svg width="782" height="205" viewBox="0 0 782 205" fill="none" xmlns="http://www.w3.org/2000/svg">
<path d="M0.25 200.686V3.77051H83.2847L115.987 130.768H117.519L150.222 3.77051H232.744V200.686H179.091V66.8898H177.558L142.299 200.686H88.9016L52.8782 66.8898H51.3459V200.686H0.25Z" fill="#E30613"/>
<path d="M238.435 200.686L308.442 3.77051H371.802L441.804 200.686H384.573L374.098 166.969H306.136L295.66 200.686H238.43H238.435ZM317.38 125.156H362.859L340.888 57.4499H339.356L317.385 125.156H317.38Z" fill="#E30613"/>
<path d="M518.923 204.462C468.486 204.462 432.609 175.598 429.492 134.329H488.506C489.029 151.593 501.246 162.654 519.185 162.654C534.262 162.654 544.403 155.102 544.403 142.692C544.403 133.791 538.943 129.743 523.604 127.855L507.747 125.967C457.571 120.031 435.214 99.5297 435.214 65.546C435.214 26.7037 468.753 0 517.888 0C567.022 0 601.858 27.2424 602.638 66.8953H542.844C542.583 51.2475 532.704 41.8076 517.365 41.8076C504.368 41.8076 495.268 48.5489 495.268 59.3434C495.268 68.5166 501.769 72.8312 516.585 74.7192L532.186 76.6072C580.803 82.5431 603.678 101.962 603.678 135.684C603.678 176.953 568.063 204.467 518.928 204.467L518.923 204.462Z" fill="#E30613"/>
<path d="M614.754 200.686V3.77051H706.099C753.152 3.77051 781.749 28.0476 781.749 71.7484C781.749 115.449 752.634 142.692 706.617 142.692H671.948V200.686H614.754ZM671.948 102.228H694.661C711.82 102.228 723.258 92.5162 723.258 73.9031C723.258 55.29 712.861 45.5781 694.661 45.5781H671.948V102.223V102.228Z" fill="#E30613"/>
</svg>
